<svg width="46" height="45" viewBox="0 0 46 45" fill="none" xmlns="http://www.w3.org/2000/svg">
<rect x="0.788696" width="30.2113" height="30.2113" rx="5" fill="#D6A127"/>
<path d="M18.8828 14.9725C17.1625 14.9725 15.7586 16.3764 15.7586 18.0967C15.7586 19.817 17.1625 21.2209 18.8828 21.2209C20.6031 21.2209 22.007 19.817 22.007 18.0967C22.007 16.3764 20.6031 14.9725 18.8828 14.9725ZM28.2531 18.0967C28.2531 16.8029 28.2648 15.5209 28.1922 14.2295C28.1195 12.7295 27.7773 11.3983 26.6805 10.3014C25.5812 9.20216 24.2523 8.86232 22.7523 8.78966C21.4586 8.71701 20.1766 8.72872 18.8851 8.72872C17.5914 8.72872 16.3094 8.71701 15.018 8.78966C13.518 8.86232 12.1867 9.20451 11.0898 10.3014C9.99061 11.4006 9.65077 12.7295 9.57811 14.2295C9.50546 15.5233 9.51718 16.8053 9.51718 18.0967C9.51718 19.3881 9.50546 20.6725 9.57811 21.9639C9.65077 23.4639 9.99296 24.7951 11.0898 25.892C12.1891 26.9912 13.518 27.3311 15.018 27.4037C16.3117 27.4764 17.5937 27.4647 18.8851 27.4647C20.1789 27.4647 21.4609 27.4764 22.7523 27.4037C24.2523 27.3311 25.5836 26.9889 26.6805 25.892C27.7797 24.7928 28.1195 23.4639 28.1922 21.9639C28.2672 20.6725 28.2531 19.3904 28.2531 18.0967ZM18.8828 22.9037C16.2226 22.9037 14.0758 20.7568 14.0758 18.0967C14.0758 15.4365 16.2226 13.2897 18.8828 13.2897C21.543 13.2897 23.6898 15.4365 23.6898 18.0967C23.6898 20.7568 21.543 22.9037 18.8828 22.9037ZM23.8867 14.2154C23.2656 14.2154 22.7641 13.7139 22.7641 13.0928C22.7641 12.4717 23.2656 11.9701 23.8867 11.9701C24.5078 11.9701 25.0094 12.4717 25.0094 13.0928C25.0096 13.2403 24.9806 13.3863 24.9243 13.5226C24.8679 13.6589 24.7852 13.7828 24.681 13.887C24.5767 13.9913 24.4528 14.074 24.3165 14.1304C24.1803 14.1867 24.0342 14.2156 23.8867 14.2154Z" fill="#F9F9F9"/>
</svg>
