<svg width="45" height="45" viewBox="0 0 45 45" fill="none" xmlns="http://www.w3.org/2000/svg">
<rect width="30.2113" height="30.2113" rx="5" fill="#D6A127"/>
<path d="M28.3964 12.0051C27.6792 12.3145 26.8987 12.5371 26.0948 12.6238C26.9295 12.128 27.5545 11.3446 27.8526 10.4207C27.0694 10.8866 26.2114 11.2133 25.3167 11.3863C24.9427 10.9866 24.4905 10.6681 23.988 10.4507C23.4856 10.2334 22.9438 10.1218 22.3964 10.1231C20.1815 10.1231 18.4003 11.9184 18.4003 14.1215C18.4003 14.4309 18.4378 14.7402 18.4987 15.0379C15.1823 14.8645 12.2245 13.2801 10.2581 10.8543C9.89981 11.4663 9.71204 12.1631 9.71436 12.8723C9.71436 14.2598 10.4198 15.4832 11.4956 16.2027C10.8616 16.1778 10.2425 16.0035 9.68857 15.6942V15.7434C9.68857 17.6863 11.062 19.2965 12.8925 19.6668C12.5488 19.7561 12.1952 19.8018 11.8401 19.8027C11.58 19.8027 11.3339 19.777 11.0854 19.7418C11.5917 21.3262 13.0659 22.477 14.8214 22.5145C13.4479 23.5902 11.7276 24.2231 9.85967 24.2231C9.52451 24.2231 9.21514 24.2113 8.89404 24.1738C10.6659 25.3106 12.7683 25.9668 15.0323 25.9668C22.3823 25.9668 26.4042 19.8777 26.4042 14.5926C26.4042 14.4192 26.4042 14.2457 26.3925 14.0723C27.1706 13.5027 27.8526 12.7973 28.3964 12.0051Z" fill="#F9F9F9"/>
</svg>
